<svg xmlns="http://www.w3.org/2000/svg" width="20.833" height="25" viewBox="0 0 20.833 25">
  <path id="Icon_awesome-database" data-name="Icon awesome-database" d="M20.833,3.571V5.8c0,1.967-4.666,3.571-10.417,3.571S0,7.771,0,5.8V3.571C0,1.6,4.666,0,10.417,0S20.833,1.6,20.833,3.571Zm0,5.022v5.022c0,1.967-4.666,3.571-10.417,3.571S0,15.583,0,13.616V8.594c2.238,1.618,6.334,2.372,10.417,2.372S18.6,10.212,20.833,8.594Zm0,7.813v5.022C20.833,23.4,16.168,25,10.417,25S0,23.4,0,21.429V16.406c2.238,1.618,6.334,2.372,10.417,2.372S18.6,18.025,20.833,16.406Z" fill="#eee"/>
</svg>
