<svg xmlns="http://www.w3.org/2000/svg" width="29.793" height="30.907" viewBox="0 0 29.793 30.907">
  <path id="Icon_awesome-instagram" data-name="Icon awesome-instagram" d="M14.895,9.767a7.772,7.772,0,0,0-7.637,7.924,7.772,7.772,0,0,0,7.637,7.924,7.772,7.772,0,0,0,7.637-7.924A7.772,7.772,0,0,0,14.895,9.767Zm0,13.076a5.155,5.155,0,0,1,0-10.3,5.155,5.155,0,0,1,0,10.3Zm9.731-13.4a1.782,1.782,0,1,1-1.781-1.848A1.811,1.811,0,0,1,24.625,9.443Zm5.058,1.876a9.341,9.341,0,0,0-2.406-6.476,8.7,8.7,0,0,0-6.241-2.5c-2.459-.145-9.83-.145-12.289,0a8.683,8.683,0,0,0-6.241,2.49A9.372,9.372,0,0,0,.1,11.312c-.14,2.552-.14,10.2,0,12.752A9.341,9.341,0,0,0,2.505,30.54a8.708,8.708,0,0,0,6.241,2.5c2.459.145,9.83.145,12.289,0a8.64,8.64,0,0,0,6.241-2.5,9.4,9.4,0,0,0,2.406-6.476c.14-2.552.14-10.193,0-12.745ZM26.506,26.8a5.125,5.125,0,0,1-2.831,2.938c-1.961.807-6.613.621-8.78.621s-6.826.179-8.78-.621A5.125,5.125,0,0,1,3.283,26.8c-.778-2.034-.6-6.862-.6-9.11s-.173-7.083.6-9.11A5.125,5.125,0,0,1,6.115,5.643c1.961-.807,6.613-.621,8.78-.621s6.826-.179,8.78.621a5.125,5.125,0,0,1,2.831,2.938c.778,2.034.6,6.862.6,9.11S27.284,24.774,26.506,26.8Z" transform="translate(0.005 -2.238)" fill="#fff"/>
</svg>
