<svg xmlns="http://www.w3.org/2000/svg" width="31.5" height="29.75" viewBox="0 0 31.5 29.75">
  <path id="Icon_awesome-medium" data-name="Icon awesome-medium" d="M0,2.25V32H31.5V2.25ZM26.17,9.3l-1.687,1.527a.456.456,0,0,0-.19.445V22.511a.445.445,0,0,0,.19.445l1.652,1.527v.339h-8.3V24.5l1.709-1.567c.169-.159.169-.206.169-.445V13.393l-4.753,11.4h-.64l-5.534-11.4V21.03a1.014,1.014,0,0,0,.309.877L11.32,24.45v.339H5.006V24.45l2.222-2.543a.981.981,0,0,0,.288-.877V12.2a.737.737,0,0,0-.267-.651L5.273,9.3V8.957h6.138l4.739,9.828,4.17-9.822h5.85Z" transform="translate(0 -2.25)" fill="#fff"/>
</svg>
