<svg xmlns="http://www.w3.org/2000/svg" width="14.704" height="26" viewBox="0 0 14.704 26">
  <path id="Icon_material-attach-money" data-name="Icon material-attach-money" d="M17.4,15.911c-3.279-.852-4.333-1.733-4.333-3.106,0-1.574,1.459-2.672,3.9-2.672,2.571,0,3.524,1.228,3.611,3.033h3.192a5.758,5.758,0,0,0-4.637-5.5V4.5H14.8V7.62c-2.8.607-5.056,2.427-5.056,5.214,0,3.337,2.759,5,6.789,5.966,3.611.867,4.333,2.138,4.333,3.481,0,1-.708,2.586-3.9,2.586-2.976,0-4.146-1.329-4.3-3.033H9.48c.173,3.163,2.542,4.94,5.316,5.532V30.5h4.333V27.394c2.817-.534,5.056-2.167,5.056-5.128C24.184,18.164,20.674,16.763,17.4,15.911Z" transform="translate(-9.48 -4.5)" fill="#eee"/>
</svg>
