<svg xmlns="http://www.w3.org/2000/svg" width="28.577" height="23.21" viewBox="0 0 28.577 23.21">
  <path id="Icon_awesome-twitter" data-name="Icon awesome-twitter" d="M25.64,9.165c.018.254.018.508.018.762,0,7.743-5.893,16.664-16.664,16.664A16.551,16.551,0,0,1,0,23.961a12.116,12.116,0,0,0,1.414.073,11.73,11.73,0,0,0,7.271-2.5A5.867,5.867,0,0,1,3.209,17.47a7.386,7.386,0,0,0,1.106.091,6.194,6.194,0,0,0,1.541-.2,5.858,5.858,0,0,1-4.7-5.748v-.073a5.9,5.9,0,0,0,2.647.743A5.866,5.866,0,0,1,1.995,4.451a16.648,16.648,0,0,0,12.076,6.129,6.612,6.612,0,0,1-.145-1.342A5.862,5.862,0,0,1,24.062,5.23a11.531,11.531,0,0,0,3.717-1.414A5.841,5.841,0,0,1,25.2,7.044a11.741,11.741,0,0,0,3.373-.907A12.59,12.59,0,0,1,25.64,9.165Z" transform="translate(0 -3.381)" fill="#fff"/>
</svg>
